<svg width="44" height="42" viewBox="0 0 44 42" fill="none" xmlns="http://www.w3.org/2000/svg" xmlns:xlink="http://www.w3.org/1999/xlink">
<path d="M19.737,1.057C20.507,0.564 21.494,0.564 22.264,1.057L41.795,13.557C42.885,14.255 43.203,15.704 42.506,16.795C41.808,17.885 40.358,18.203 39.268,17.505L37.407,16.314L37.407,35.063C37.407,38.514 34.608,41.313 31.157,41.313L10.844,41.313C7.392,41.313 4.594,38.514 4.594,35.063L4.594,16.314L2.732,17.505C1.642,18.203 0.193,17.885 -0.505,16.795C-1.203,15.704 -0.885,14.255 0.206,13.557L19.737,1.057ZM12.797,17.875C12.797,17.012 13.497,16.313 14.36,16.313L19.047,16.313C19.91,16.313 20.61,17.012 20.61,17.875L20.61,22.563C20.61,23.426 19.91,24.125 19.047,24.125L14.36,24.125C13.497,24.125 12.797,23.426 12.797,22.563L12.797,17.875ZM14.36,28.031C14.36,27.168 15.059,26.469 15.922,26.469L19.047,26.469C19.91,26.469 20.61,27.168 20.61,28.031L20.61,31.156C20.61,32.019 19.91,32.719 19.047,32.719L15.922,32.719C15.059,32.719 14.36,32.019 14.36,31.156L14.36,28.031ZM22.953,19.438C22.953,18.575 23.653,17.875 24.516,17.875L27.641,17.875C28.504,17.875 29.203,18.575 29.203,19.438L29.203,22.563C29.203,23.426 28.504,24.125 27.641,24.125L24.516,24.125C23.653,24.125 22.953,23.426 22.953,22.563L22.953,19.438ZM22.953,28.031C22.953,27.168 23.653,26.469 24.516,26.469L27.641,26.469C28.504,26.469 29.203,27.168 29.203,28.031L29.203,31.156C29.203,32.019 28.504,32.719 27.641,32.719L24.516,32.719C23.653,32.719 22.953,32.019 22.953,31.156L22.953,28.031Z" clip-rule="evenodd" fill-rule="evenodd" fill="#FFFFFF"/>
</svg>
