<svg width="36" height="34" viewBox="0 0 36 34" fill="none" xmlns="http://www.w3.org/2000/svg" xmlns:xlink="http://www.w3.org/1999/xlink">
<path d="M16.989,0.046C17.605,-0.349 18.395,-0.349 19.011,0.046L34.636,10.046C35.508,10.604 35.763,11.764 35.204,12.636C34.646,13.508 33.487,13.762 32.614,13.204L31.125,12.251L31.125,27.25C31.125,30.011 28.886,32.25 26.125,32.25L9.875,32.25C7.114,32.25 4.875,30.011 4.875,27.25L4.875,12.251L3.386,13.204C2.514,13.762 1.354,13.508 0.796,12.636C0.238,11.764 0.492,10.604 1.364,10.046L16.989,0.046ZM11.437,13.5C11.437,12.81 11.997,12.25 12.687,12.25L16.437,12.25C17.128,12.25 17.687,12.81 17.687,13.5L17.687,17.25C17.687,17.94 17.128,18.5 16.437,18.5L12.687,18.5C11.997,18.5 11.437,17.94 11.437,17.25L11.437,13.5ZM12.687,21.625C12.687,20.935 13.247,20.375 13.937,20.375L16.437,20.375C17.128,20.375 17.687,20.935 17.687,21.625L17.687,24.125C17.687,24.815 17.128,25.375 16.437,25.375L13.937,25.375C13.247,25.375 12.687,24.815 12.687,24.125L12.687,21.625ZM19.562,14.75C19.562,14.06 20.122,13.5 20.813,13.5L23.313,13.5C24.003,13.5 24.563,14.06 24.563,14.75L24.563,17.25C24.563,17.94 24.003,18.5 23.313,18.5L20.813,18.5C20.122,18.5 19.562,17.94 19.562,17.25L19.562,14.75ZM19.562,21.625C19.562,20.935 20.122,20.375 20.813,20.375L23.313,20.375C24.003,20.375 24.563,20.935 24.563,21.625L24.563,24.125C24.563,24.815 24.003,25.375 23.313,25.375L20.813,25.375C20.122,25.375 19.562,24.815 19.562,24.125L19.562,21.625Z" clip-rule="evenodd" fill-rule="evenodd" fill="#FFFFFF"/>
</svg>
